<?xml version="1.0" encoding="utf-8"?>
<!-- Generator: Adobe Illustrator 26.0.3, SVG Export Plug-In . SVG Version: 6.00 Build 0)  -->
<svg version="1.1" xmlns="http://www.w3.org/2000/svg" xmlns:xlink="http://www.w3.org/1999/xlink" x="0px" y="0px"
	 viewBox="0 0 40 40" style="enable-background:new 0 0 40 40;" xml:space="preserve">
<style type="text/css">
	.st0{display:none;}
	.st1{display:inline;opacity:0.2;fill:#FBBA6B;}
	.st2{display:inline;fill:none;stroke:#BBBDBF;stroke-width:0.1;stroke-miterlimit:10;}
	.st3{fill:none;stroke:#000000;stroke-miterlimit:10;}
	.st4{fill:none;stroke:#000000;stroke-linecap:round;stroke-linejoin:round;stroke-miterlimit:10;}
	.st5{fill:none;stroke:#231F20;stroke-linecap:round;stroke-linejoin:round;stroke-miterlimit:10;}
	.st6{fill:#231F20;}
</style>
<g id="Слой_2" class="st0">
	<rect x="2.5" y="0" class="st1" width="35" height="40"/>
	<rect x="2.5" y="0" transform="matrix(-1.836970e-16 1 -1 -1.836970e-16 40 9.553247e-12)" class="st1" width="35" height="40"/>
	<line class="st2" x1="5" y1="0" x2="5" y2="40"/>
	<line class="st2" x1="10" y1="0" x2="10" y2="40"/>
	<line class="st2" x1="15" y1="0" x2="15" y2="40"/>
	<line class="st2" x1="20" y1="0" x2="20" y2="40"/>
	<line class="st2" x1="25" y1="0" x2="25" y2="40"/>
	<line class="st2" x1="30" y1="0" x2="30" y2="40"/>
	<line class="st2" x1="35" y1="0" x2="35" y2="40"/>
	<line class="st2" x1="2.5" y1="0" x2="2.5" y2="40"/>
	<line class="st2" x1="7.5" y1="0" x2="7.5" y2="40"/>
	<line class="st2" x1="12.5" y1="0" x2="12.5" y2="40"/>
	<line class="st2" x1="17.5" y1="0" x2="17.5" y2="40"/>
	<line class="st2" x1="22.5" y1="0" x2="22.5" y2="40"/>
	<line class="st2" x1="27.5" y1="0" x2="27.5" y2="40"/>
	<line class="st2" x1="32.5" y1="0" x2="32.5" y2="40"/>
	<line class="st2" x1="37.5" y1="0" x2="37.5" y2="40"/>
	<line class="st2" x1="40" y1="5" x2="0" y2="5"/>
	<line class="st2" x1="40" y1="10" x2="0" y2="10"/>
	<line class="st2" x1="40" y1="15" x2="0" y2="15"/>
	<line class="st2" x1="40" y1="20" x2="0" y2="20"/>
	<line class="st2" x1="40" y1="25" x2="0" y2="25"/>
	<line class="st2" x1="40" y1="30" x2="0" y2="30"/>
	<line class="st2" x1="40" y1="35" x2="0" y2="35"/>
	<line class="st2" x1="40" y1="2.5" x2="0" y2="2.5"/>
	<line class="st2" x1="40" y1="7.5" x2="0" y2="7.5"/>
	<line class="st2" x1="40" y1="12.5" x2="0" y2="12.5"/>
	<line class="st2" x1="40" y1="17.5" x2="0" y2="17.5"/>
	<line class="st2" x1="40" y1="22.5" x2="0" y2="22.5"/>
	<line class="st2" x1="40" y1="27.5" x2="0" y2="27.5"/>
	<line class="st2" x1="40" y1="32.5" x2="0" y2="32.5"/>
	<line class="st2" x1="40" y1="37.5" x2="0" y2="37.5"/>
	<circle class="st2" cx="20" cy="20" r="17.5"/>
</g>
<g id="Слой_4" class="st0">
</g>
<g id="Обводка">
	<circle class="st3" cx="20" cy="20" r="17.5"/>
	<polyline class="st4" points="20,30 20,15 18.72,15 	"/>
	<circle cx="20" cy="11" r="1"/>
</g>
<g id="Заливка">
	<g>
		<path d="M20,2C10.08,2,2,10.07,2,20c0,9.92,8.08,18,18,18s18-8.08,18-18C38,10.07,29.92,2,20,2z M20,37c-9.37,0-17-7.63-17-17
			S10.63,3,20,3s17,7.63,17,17S29.37,37,20,37z"/>
		<path d="M20,14.5h-1.28c-0.28,0-0.5,0.22-0.5,0.5s0.22,0.5,0.5,0.5h0.78V30c0,0.28,0.22,0.5,0.5,0.5s0.5-0.22,0.5-0.5V15
			C20.5,14.72,20.28,14.5,20,14.5z"/>
		<circle cx="20" cy="11" r="1"/>
	</g>
</g>
</svg>
