<?xml version="1.0" encoding="utf-8"?>
<!-- Generator: Adobe Illustrator 26.0.3, SVG Export Plug-In . SVG Version: 6.00 Build 0)  -->
<svg version="1.1" xmlns="http://www.w3.org/2000/svg" xmlns:xlink="http://www.w3.org/1999/xlink" x="0px" y="0px"
	 viewBox="0 0 40 40" style="enable-background:new 0 0 40 40;" xml:space="preserve">
<style type="text/css">
	.st0{display:none;}
	.st1{display:inline;opacity:0.2;fill:#FBBA6B;}
	.st2{display:inline;fill:none;stroke:#BBBDBF;stroke-width:0.1;stroke-miterlimit:10;}
	.st3{fill:none;stroke:#000000;stroke-miterlimit:10;}
	.st4{fill:none;stroke:#000000;stroke-linecap:round;stroke-linejoin:round;stroke-miterlimit:10;}
	.st5{fill:none;stroke:#231F20;stroke-linecap:round;stroke-linejoin:round;stroke-miterlimit:10;}
	.st6{fill:#231F20;}
</style>
<g id="Слой_2" class="st0">
	<rect x="2.5" y="0" class="st1" width="35" height="40"/>
	<rect x="2.5" y="0" transform="matrix(-1.836970e-16 1 -1 -1.836970e-16 40 9.553247e-12)" class="st1" width="35" height="40"/>
	<line class="st2" x1="5" y1="0" x2="5" y2="40"/>
	<line class="st2" x1="10" y1="0" x2="10" y2="40"/>
	<line class="st2" x1="15" y1="0" x2="15" y2="40"/>
	<line class="st2" x1="20" y1="0" x2="20" y2="40"/>
	<line class="st2" x1="25" y1="0" x2="25" y2="40"/>
	<line class="st2" x1="30" y1="0" x2="30" y2="40"/>
	<line class="st2" x1="35" y1="0" x2="35" y2="40"/>
	<line class="st2" x1="2.5" y1="0" x2="2.5" y2="40"/>
	<line class="st2" x1="7.5" y1="0" x2="7.5" y2="40"/>
	<line class="st2" x1="12.5" y1="0" x2="12.5" y2="40"/>
	<line class="st2" x1="17.5" y1="0" x2="17.5" y2="40"/>
	<line class="st2" x1="22.5" y1="0" x2="22.5" y2="40"/>
	<line class="st2" x1="27.5" y1="0" x2="27.5" y2="40"/>
	<line class="st2" x1="32.5" y1="0" x2="32.5" y2="40"/>
	<line class="st2" x1="37.5" y1="0" x2="37.5" y2="40"/>
	<line class="st2" x1="40" y1="5" x2="0" y2="5"/>
	<line class="st2" x1="40" y1="10" x2="0" y2="10"/>
	<line class="st2" x1="40" y1="15" x2="0" y2="15"/>
	<line class="st2" x1="40" y1="20" x2="0" y2="20"/>
	<line class="st2" x1="40" y1="25" x2="0" y2="25"/>
	<line class="st2" x1="40" y1="30" x2="0" y2="30"/>
	<line class="st2" x1="40" y1="35" x2="0" y2="35"/>
	<line class="st2" x1="40" y1="2.5" x2="0" y2="2.5"/>
	<line class="st2" x1="40" y1="7.5" x2="0" y2="7.5"/>
	<line class="st2" x1="40" y1="12.5" x2="0" y2="12.5"/>
	<line class="st2" x1="40" y1="17.5" x2="0" y2="17.5"/>
	<line class="st2" x1="40" y1="22.5" x2="0" y2="22.5"/>
	<line class="st2" x1="40" y1="27.5" x2="0" y2="27.5"/>
	<line class="st2" x1="40" y1="32.5" x2="0" y2="32.5"/>
	<line class="st2" x1="40" y1="37.5" x2="0" y2="37.5"/>
	<circle class="st2" cx="20" cy="20" r="17.5"/>
</g>
<g id="Слой_4" class="st0">
</g>
<g id="Обводка">
</g>
<g id="Заливка">
	<path class="st6" d="M27,2c-1.9,0-3.76,0.49-5.4,1.42c-0.2,0.11-0.27,0.36-0.16,0.56c0.11,0.2,0.36,0.27,0.56,0.16
		c1.52-0.86,3.25-1.31,5-1.31c5.61,0,10.18,4.57,10.18,10.18S32.61,23.18,27,23.18c-5.61,0-10.18-4.57-10.18-10.18
		c0-2.62,0.99-5.1,2.79-7c0.16-0.16,0.15-0.43-0.02-0.58c-0.16-0.16-0.43-0.15-0.58,0.02C17.07,7.48,16,10.17,16,13
		c0,2.86,1.1,5.47,2.89,7.43l-1.66,1.64c-0.9-0.62-2.15-0.53-2.95,0.27L2.68,33.94c-0.9,0.9-0.9,2.37,0,3.27l0.1,0.1
		c0.45,0.45,1.04,0.68,1.64,0.68s1.18-0.23,1.64-0.68l11.61-11.61c0.44-0.44,0.66-1.04,0.63-1.71c-0.02-0.49-0.19-0.96-0.47-1.35
		l1.65-1.63C21.44,22.86,24.09,24,27,24c6.07,0,11-4.93,11-11S33.06,2,27,2z M17.07,25.12L5.47,36.73c-0.58,0.58-1.53,0.58-2.11,0
		l-0.1-0.1c-0.58-0.58-0.58-1.53,0-2.11l11.61-11.61c0.58-0.58,1.53-0.58,2.11,0C17.58,23.52,17.63,24.57,17.07,25.12z"/>
	<path class="st6" d="M26.99,21.84c4.88,0,8.84-3.97,8.84-8.84s-3.97-8.84-8.84-8.84S18.15,8.12,18.15,13S22.11,21.84,26.99,21.84z
		 M26.99,4.98c4.42,0,8.02,3.6,8.02,8.02s-3.6,8.02-8.02,8.02s-8.02-3.6-8.02-8.02S22.57,4.98,26.99,4.98z"/>
</g>
</svg>
