<svg width="24" height="24" viewBox="0 0 24 24" fill="none" xmlns="http://www.w3.org/2000/svg">
<path d="M16.64 5.99427C17.05 5.99427 17.42 6.24428 17.57 6.62428L19.97 12.6243C20.23 13.2843 19.75 13.9943 19.04 13.9943H13V15.9943H14.22L14.74 18.0943C14.87 18.6043 14.81 19.1343 14.58 19.5943L14.36 20.0243C14.29 20.1743 14.17 20.2843 14.03 20.3643C13.67 20.5343 13.24 20.4043 13.04 20.0643L9.86 14.4943C9.69 14.1843 9.36 13.9943 9 13.9943H8V7.53449L10.3 5.99427H16.64ZM6 5.99427V14.9943H4V5.99427H6ZM19.04 15.9943C21.16 15.9943 22.62 13.8543 21.83 11.8843L19.43 5.88427C18.97 4.74427 17.87 3.99427 16.64 3.99427H10C9.8 3.99427 9.61 4.05428 9.44 4.16428L8 5.12428V4.99427C8 4.44427 7.55 3.99427 7 3.99427H3C2.44 3.99427 2 4.44427 2 4.99427V15.9943C2 16.5443 2.44 16.9943 3 16.9943H7C7.55 16.9943 8 16.5443 8 15.9943H8.42L11.31 21.0543C12.03 22.3243 13.62 22.8043 14.92 22.1543C15.45 21.8843 15.89 21.4543 16.15 20.9243L16.36 20.4943C16.81 19.6043 16.92 18.5743 16.68 17.6143C16.42 16.5643 16.09 16.3043 15.02 16.1143V15.9943H19.04Z" fill="#201E33"/>
</svg>
