<?xml version="1.0" encoding="utf-8"?>
<!-- Generator: Adobe Illustrator 26.0.3, SVG Export Plug-In . SVG Version: 6.00 Build 0)  -->
<svg version="1.1" xmlns="http://www.w3.org/2000/svg" xmlns:xlink="http://www.w3.org/1999/xlink" x="0px" y="0px"
	 viewBox="0 0 40 40" style="enable-background:new 0 0 40 40;" xml:space="preserve">
<style type="text/css">
	.st0{display:none;}
	.st1{display:inline;opacity:0.2;fill:#FBBA6B;}
	.st2{display:inline;fill:none;stroke:#BBBDBF;stroke-width:0.1;stroke-miterlimit:10;}
	.st3{fill:none;stroke:#000000;stroke-miterlimit:10;}
	.st4{fill:none;stroke:#000000;stroke-linecap:round;stroke-linejoin:round;stroke-miterlimit:10;}
	.st5{fill:none;stroke:#231F20;stroke-linecap:round;stroke-linejoin:round;stroke-miterlimit:10;}
	.st6{fill:#231F20;}
</style>
<g id="Слой_2" class="st0">
	<rect x="2.5" y="0" class="st1" width="35" height="40"/>
	<rect x="2.5" y="0" transform="matrix(-1.836970e-16 1 -1 -1.836970e-16 40 9.553247e-12)" class="st1" width="35" height="40"/>
	<line class="st2" x1="5" y1="0" x2="5" y2="40"/>
	<line class="st2" x1="10" y1="0" x2="10" y2="40"/>
	<line class="st2" x1="15" y1="0" x2="15" y2="40"/>
	<line class="st2" x1="20" y1="0" x2="20" y2="40"/>
	<line class="st2" x1="25" y1="0" x2="25" y2="40"/>
	<line class="st2" x1="30" y1="0" x2="30" y2="40"/>
	<line class="st2" x1="35" y1="0" x2="35" y2="40"/>
	<line class="st2" x1="2.5" y1="0" x2="2.5" y2="40"/>
	<line class="st2" x1="7.5" y1="0" x2="7.5" y2="40"/>
	<line class="st2" x1="12.5" y1="0" x2="12.5" y2="40"/>
	<line class="st2" x1="17.5" y1="0" x2="17.5" y2="40"/>
	<line class="st2" x1="22.5" y1="0" x2="22.5" y2="40"/>
	<line class="st2" x1="27.5" y1="0" x2="27.5" y2="40"/>
	<line class="st2" x1="32.5" y1="0" x2="32.5" y2="40"/>
	<line class="st2" x1="37.5" y1="0" x2="37.5" y2="40"/>
	<line class="st2" x1="40" y1="5" x2="0" y2="5"/>
	<line class="st2" x1="40" y1="10" x2="0" y2="10"/>
	<line class="st2" x1="40" y1="15" x2="0" y2="15"/>
	<line class="st2" x1="40" y1="20" x2="0" y2="20"/>
	<line class="st2" x1="40" y1="25" x2="0" y2="25"/>
	<line class="st2" x1="40" y1="30" x2="0" y2="30"/>
	<line class="st2" x1="40" y1="35" x2="0" y2="35"/>
	<line class="st2" x1="40" y1="2.5" x2="0" y2="2.5"/>
	<line class="st2" x1="40" y1="7.5" x2="0" y2="7.5"/>
	<line class="st2" x1="40" y1="12.5" x2="0" y2="12.5"/>
	<line class="st2" x1="40" y1="17.5" x2="0" y2="17.5"/>
	<line class="st2" x1="40" y1="22.5" x2="0" y2="22.5"/>
	<line class="st2" x1="40" y1="27.5" x2="0" y2="27.5"/>
	<line class="st2" x1="40" y1="32.5" x2="0" y2="32.5"/>
	<line class="st2" x1="40" y1="37.5" x2="0" y2="37.5"/>
	<circle class="st2" cx="20" cy="20" r="17.5"/>
</g>
<g id="Слой_4" class="st0">
</g>
<g id="Обводка">
</g>
<g id="Заливка">
	<path class="st6" d="M6.58,22.91v14.14c0,0.22,0.18,0.4,0.4,0.4H29.2c0.22,0,0.4-0.18,0.4-0.4v-2.89h4c0.22,0,0.4-0.18,0.4-0.4
		V21.38c0-0.22-0.18-0.4-0.4-0.4s-0.4,0.18-0.4,0.4v11.98h-3.6V18.64c0.02-0.08,0.02-0.16,0-0.23v-7.42c0,0,0-0.01,0-0.01
		c0,0,0-0.01,0-0.01c0-0.14-0.07-0.26-0.17-0.33l-4.1-4.67c-0.08-0.09-0.19-0.14-0.3-0.14H11.78V3.35h21.27v8.8
		c0,0.22,0.18,0.4,0.4,0.4s0.4-0.18,0.4-0.4v-9.2c0-0.22-0.18-0.4-0.4-0.4H11.38c-0.22,0-0.4,0.18-0.4,0.4v2.89h-4
		c-0.22,0-0.4,0.18-0.4,0.4v5.05c0,0.03,0,0.07,0,0.1v6.03V22.91z M7.29,18.1 M11.4,23.2 M7.38,27.39v-9.2v-5.88l7.32,7.45
		c-0.01,0.01-0.02,0.02-0.03,0.03L7.38,27.39z M28.8,36.65h-4.35l-6.17-6.21l3.38-3.51l2.85,2.93l-1.63,1.68
		c-0.15,0.16-0.15,0.41,0.01,0.57c0.08,0.08,0.18,0.11,0.28,0.11c0.1,0,0.21-0.04,0.29-0.12l1.9-1.96l3.45-3.52V36.65z M28.8,25.48
		c-0.01,0.01-0.02,0.02-0.03,0.03l-3.7,3.78l-2.85-2.93l6.58-6.83V25.48z M10.62,25.18 M15.25,20.35c0,0,0.01-0.01,0.01-0.01
		l2.51,2.55c0.04,0.04,0.08,0.07,0.13,0.09l-3.58,3.65c-0.15,0.16-0.15,0.41,0.01,0.57c0.08,0.08,0.18,0.11,0.28,0.11
		c0.1,0,0.21-0.04,0.29-0.12l13.91-14.2v5.39l-2.13,2.21l-1.68-1.73c-0.15-0.16-0.41-0.16-0.57-0.01c-0.16,0.15-0.16,0.41-0.01,0.57
		l1.7,1.75L15.84,31.81l-1.79-1.87c-0.15-0.16-0.41-0.17-0.57-0.01c-0.16,0.15-0.17,0.41-0.01,0.57l1.81,1.9l-1.1,1.14
		c-0.15,0.16-0.15,0.41,0.01,0.57c0.08,0.07,0.18,0.11,0.28,0.11c0.1,0,0.21-0.04,0.29-0.12l2.96-3.06l5.6,5.63H7.38v-8.16
		c0.06-0.02,0.11-0.05,0.15-0.1L15.25,20.35z M21.69,19.1l-7.23-7.44c-0.15-0.16-0.41-0.16-0.57-0.01
		c-0.16,0.15-0.16,0.41-0.01,0.57l7.25,7.45l-2.71,2.77c-0.02-0.04-0.05-0.08-0.08-0.12L7.38,11.18V6.64h17.46l3.45,3.94h-2.91V8.83
		c0-0.22-0.18-0.4-0.4-0.4s-0.4,0.18-0.4,0.4v2.14c0,0.22,0.18,0.4,0.4,0.4h3.81v0.47L21.69,19.1z"/>
</g>
</svg>
