<?xml version="1.0" encoding="utf-8"?>
<!-- Generator: Adobe Illustrator 26.0.3, SVG Export Plug-In . SVG Version: 6.00 Build 0)  -->
<svg version="1.1" id="Обводка" xmlns="http://www.w3.org/2000/svg" xmlns:xlink="http://www.w3.org/1999/xlink" x="0px"
	 y="0px" viewBox="0 0 40 40" style="enable-background:new 0 0 40 40;" xml:space="preserve" fill='none' stroke='white'>

<polygon class="st0" points="29.5,36.5 7.5,36.5 7.5,6.5 25.3,6.5 29.5,11.5 "/>
<line class="st0" x1="7.5" y1="27.9" x2="15.5" y2="19.9"/>
<line class="st0" x1="7.5" y1="11.8" x2="18.6" y2="22.9"/>
<line class="st0" x1="29.5" y1="12.3" x2="14.8" y2="27.1"/>
<line class="st0" x1="22" y1="19.9" x2="14" y2="12"/>
<line class="st0" x1="29.5" y1="18.8" x2="14.6" y2="33.6"/>
<line class="st0" x1="26.9" y1="21.4" x2="24.7" y2="19.3"/>
<line class="st0" x1="15.8" y1="32.4" x2="13.4" y2="30"/>
<line class="st0" x1="17.8" y1="30.5" x2="23.6" y2="36.4"/>
<line class="st0" x1="29.5" y1="25.4" x2="23.1" y2="31.8"/>
<line class="st0" x1="25" y1="29.9" x2="21.7" y2="26.6"/>
<polyline class="st0" points="11.4,6.5 11.4,3 33.5,3 33.5,7.3 "/>
<polyline class="st0" points="33.5,12.3 33.5,33.6 29.5,33.6 "/>
<polyline class="st0" points="25.3,6.5 25.3,11.5 29.5,11.5 "/>
</svg>
