<?xml version="1.0" encoding="utf-8"?>
<!-- Generator: Adobe Illustrator 26.0.3, SVG Export Plug-In . SVG Version: 6.00 Build 0)  -->
<svg version="1.1" xmlns="http://www.w3.org/2000/svg" xmlns:xlink="http://www.w3.org/1999/xlink" x="0px" y="0px"
	 viewBox="0 0 40 40" style="enable-background:new 0 0 40 40;" xml:space="preserve">
<style type="text/css">
	.st0{display:none;}
	.st1{display:inline;opacity:0.2;fill:#FBBA6B;}
	.st2{display:inline;fill:none;stroke:#BBBDBF;stroke-width:0.1;stroke-miterlimit:10;}
	.st3{fill:none;stroke:#000000;stroke-miterlimit:10;}
	.st4{fill:none;stroke:#000000;stroke-linecap:round;stroke-linejoin:round;stroke-miterlimit:10;}
	.st5{fill:none;stroke:#231F20;stroke-linecap:round;stroke-linejoin:round;stroke-miterlimit:10;}
	.st6{fill:#231F20;}
</style>
<g id="Слой_2" class="st0">
	<rect x="2.5" y="0" class="st1" width="35" height="40"/>
	<rect x="2.5" y="0" transform="matrix(-1.836970e-16 1 -1 -1.836970e-16 40 9.553247e-12)" class="st1" width="35" height="40"/>
	<line class="st2" x1="5" y1="0" x2="5" y2="40"/>
	<line class="st2" x1="10" y1="0" x2="10" y2="40"/>
	<line class="st2" x1="15" y1="0" x2="15" y2="40"/>
	<line class="st2" x1="20" y1="0" x2="20" y2="40"/>
	<line class="st2" x1="25" y1="0" x2="25" y2="40"/>
	<line class="st2" x1="30" y1="0" x2="30" y2="40"/>
	<line class="st2" x1="35" y1="0" x2="35" y2="40"/>
	<line class="st2" x1="2.5" y1="0" x2="2.5" y2="40"/>
	<line class="st2" x1="7.5" y1="0" x2="7.5" y2="40"/>
	<line class="st2" x1="12.5" y1="0" x2="12.5" y2="40"/>
	<line class="st2" x1="17.5" y1="0" x2="17.5" y2="40"/>
	<line class="st2" x1="22.5" y1="0" x2="22.5" y2="40"/>
	<line class="st2" x1="27.5" y1="0" x2="27.5" y2="40"/>
	<line class="st2" x1="32.5" y1="0" x2="32.5" y2="40"/>
	<line class="st2" x1="37.5" y1="0" x2="37.5" y2="40"/>
	<line class="st2" x1="40" y1="5" x2="0" y2="5"/>
	<line class="st2" x1="40" y1="10" x2="0" y2="10"/>
	<line class="st2" x1="40" y1="15" x2="0" y2="15"/>
	<line class="st2" x1="40" y1="20" x2="0" y2="20"/>
	<line class="st2" x1="40" y1="25" x2="0" y2="25"/>
	<line class="st2" x1="40" y1="30" x2="0" y2="30"/>
	<line class="st2" x1="40" y1="35" x2="0" y2="35"/>
	<line class="st2" x1="40" y1="2.5" x2="0" y2="2.5"/>
	<line class="st2" x1="40" y1="7.5" x2="0" y2="7.5"/>
	<line class="st2" x1="40" y1="12.5" x2="0" y2="12.5"/>
	<line class="st2" x1="40" y1="17.5" x2="0" y2="17.5"/>
	<line class="st2" x1="40" y1="22.5" x2="0" y2="22.5"/>
	<line class="st2" x1="40" y1="27.5" x2="0" y2="27.5"/>
	<line class="st2" x1="40" y1="32.5" x2="0" y2="32.5"/>
	<line class="st2" x1="40" y1="37.5" x2="0" y2="37.5"/>
	<circle class="st2" cx="20" cy="20" r="17.5"/>
</g>
<g id="Слой_4" class="st0">
</g>
<g id="Обводка">
	<g>
		<g>
			<line class="st5" x1="18.62" y1="28.36" x2="19.83" y2="30"/>
			<path class="st5" d="M19.83,30l8.49-11.55c1.02-1.59,1.62-3.5,1.62-5.56c0-5.49-4.25-9.94-9.5-9.94h-1.22
				c-5.25,0-9.5,4.45-9.5,9.94c0,2.06,0.6,3.97,1.62,5.56l5.54,7.54"/>
		</g>
		<circle class="st5" cx="19.83" cy="12.23" r="5.07"/>
	</g>
	<polyline class="st5" points="13.73,25 10,25 2.5,37.5 37.5,37.5 30,25 26.23,25 	"/>
</g>
<g id="Заливка">
	<g>
		<g>
			<g>
				<path class="st6" d="M19.83,30.5c-0.15,0-0.3-0.07-0.4-0.2l-1.21-1.64c-0.16-0.22-0.12-0.54,0.11-0.7
					c0.22-0.16,0.53-0.12,0.7,0.11l1.21,1.64c0.16,0.22,0.12,0.54-0.11,0.7C20.04,30.47,19.93,30.5,19.83,30.5z"/>
			</g>
			<g>
				<path class="st6" d="M19.83,30.5c-0.1,0-0.21-0.03-0.3-0.1c-0.22-0.16-0.27-0.48-0.11-0.7l8.49-11.55
					c0.99-1.54,1.53-3.37,1.53-5.26c0-5.21-4.04-9.44-9-9.44h-1.22c-4.96,0-9,4.24-9,9.44c0,1.9,0.53,3.72,1.54,5.29l5.52,7.51
					c0.16,0.22,0.12,0.54-0.11,0.7c-0.22,0.16-0.53,0.12-0.7-0.11l-5.54-7.54c-1.13-1.75-1.72-3.77-1.72-5.85
					c0-5.76,4.49-10.44,10-10.44h1.22c5.51,0,10,4.68,10,10.44c0,2.09-0.59,4.1-1.7,5.83L20.23,30.3
					C20.14,30.43,19.98,30.5,19.83,30.5z"/>
			</g>
		</g>
		<g>
			<path class="st6" d="M19.83,17.81c-3.07,0-5.57-2.5-5.57-5.57c0-3.07,2.5-5.57,5.57-5.57c3.07,0,5.57,2.5,5.57,5.57
				C25.4,15.31,22.9,17.81,19.83,17.81z M19.83,7.66c-2.52,0-4.57,2.05-4.57,4.57s2.05,4.57,4.57,4.57s4.57-2.05,4.57-4.57
				S22.35,7.66,19.83,7.66z"/>
		</g>
	</g>
	<g>
		<path class="st6" d="M37.5,38h-35c-0.18,0-0.35-0.1-0.44-0.25c-0.09-0.16-0.09-0.35,0.01-0.5l7.5-12.5
			C9.66,24.59,9.82,24.5,10,24.5h3.73c0.28,0,0.5,0.22,0.5,0.5s-0.22,0.5-0.5,0.5h-3.45L3.38,37h33.23l-6.9-11.5h-3.49
			c-0.28,0-0.5-0.22-0.5-0.5s0.22-0.5,0.5-0.5H30c0.18,0,0.34,0.09,0.43,0.24l7.5,12.5c0.09,0.15,0.09,0.35,0.01,0.5
			C37.85,37.9,37.68,38,37.5,38z"/>
	</g>
</g>
</svg>
