<svg width="24" height="24" viewBox="0 0 24 24" fill="none" xmlns="http://www.w3.org/2000/svg">
<path d="M16.8536 4.14645C16.6583 3.95118 16.3417 3.95118 16.1465 4.14645L14.5 5.7929L18.2071 9.50001L19.8536 7.85355C20.0488 7.65829 20.0488 7.34171 19.8536 7.14645L16.8536 4.14645Z" fill="#201E33"/>
<path d="M17.5 10.2071L13.7929 6.50001L7.29291 13H7.5C7.77614 13 8 13.2239 8 13.5V14H8.5C8.77614 14 9 14.2239 9 14.5V15H9.5C9.77614 15 10 15.2239 10 15.5V16H10.5C10.7761 16 11 16.2239 11 16.5V16.7071L17.5 10.2071Z" fill="#201E33"/>
<path d="M10.0317 17.6755C10.0112 17.6209 10 17.5617 10 17.5V17H9.5C9.22386 17 9 16.7761 9 16.5V16H8.5C8.22386 16 8 15.7761 8 15.5V15H7.5C7.22386 15 7 14.7761 7 14.5V14H6.5C6.43827 14 6.37915 13.9888 6.32455 13.9684L6.14646 14.1464C6.09858 14.1943 6.06092 14.2514 6.03578 14.3143L4.03578 19.3143C3.96149 19.5 4.00503 19.7121 4.14646 19.8536C4.28789 19.995 4.5 20.0385 4.68571 19.9642L9.68571 17.9642C9.74858 17.9391 9.80569 17.9014 9.85357 17.8536L10.0317 17.6755Z" fill="#201E33"/>
</svg>
