<?xml version="1.0" encoding="utf-8"?>
<!-- Generator: Adobe Illustrator 26.0.3, SVG Export Plug-In . SVG Version: 6.00 Build 0)  -->
<svg version="1.1" xmlns="http://www.w3.org/2000/svg" xmlns:xlink="http://www.w3.org/1999/xlink" x="0px" y="0px"
	 viewBox="0 0 40 40" style="enable-background:new 0 0 40 40;" xml:space="preserve">
<style type="text/css">
	.st0{display:none;}
	.st1{display:inline;opacity:0.2;fill:#FBBA6B;}
	.st2{display:inline;fill:none;stroke:#BBBDBF;stroke-width:0.1;stroke-miterlimit:10;}
	.st3{fill:none;stroke:#000000;stroke-miterlimit:10;}
	.st4{fill:none;stroke:#000000;stroke-linecap:round;stroke-linejoin:round;stroke-miterlimit:10;}
	.st5{fill:none;stroke:#231F20;stroke-linecap:round;stroke-linejoin:round;stroke-miterlimit:10;}
	.st6{fill:#231F20;}
</style>
<g id="Слой_2" class="st0">
	<rect x="2.5" y="0" class="st1" width="35" height="40"/>
	<rect x="2.5" y="0" transform="matrix(-1.836970e-16 1 -1 -1.836970e-16 40 9.553247e-12)" class="st1" width="35" height="40"/>
	<line class="st2" x1="5" y1="0" x2="5" y2="40"/>
	<line class="st2" x1="10" y1="0" x2="10" y2="40"/>
	<line class="st2" x1="15" y1="0" x2="15" y2="40"/>
	<line class="st2" x1="20" y1="0" x2="20" y2="40"/>
	<line class="st2" x1="25" y1="0" x2="25" y2="40"/>
	<line class="st2" x1="30" y1="0" x2="30" y2="40"/>
	<line class="st2" x1="35" y1="0" x2="35" y2="40"/>
	<line class="st2" x1="2.5" y1="0" x2="2.5" y2="40"/>
	<line class="st2" x1="7.5" y1="0" x2="7.5" y2="40"/>
	<line class="st2" x1="12.5" y1="0" x2="12.5" y2="40"/>
	<line class="st2" x1="17.5" y1="0" x2="17.5" y2="40"/>
	<line class="st2" x1="22.5" y1="0" x2="22.5" y2="40"/>
	<line class="st2" x1="27.5" y1="0" x2="27.5" y2="40"/>
	<line class="st2" x1="32.5" y1="0" x2="32.5" y2="40"/>
	<line class="st2" x1="37.5" y1="0" x2="37.5" y2="40"/>
	<line class="st2" x1="40" y1="5" x2="0" y2="5"/>
	<line class="st2" x1="40" y1="10" x2="0" y2="10"/>
	<line class="st2" x1="40" y1="15" x2="0" y2="15"/>
	<line class="st2" x1="40" y1="20" x2="0" y2="20"/>
	<line class="st2" x1="40" y1="25" x2="0" y2="25"/>
	<line class="st2" x1="40" y1="30" x2="0" y2="30"/>
	<line class="st2" x1="40" y1="35" x2="0" y2="35"/>
	<line class="st2" x1="40" y1="2.5" x2="0" y2="2.5"/>
	<line class="st2" x1="40" y1="7.5" x2="0" y2="7.5"/>
	<line class="st2" x1="40" y1="12.5" x2="0" y2="12.5"/>
	<line class="st2" x1="40" y1="17.5" x2="0" y2="17.5"/>
	<line class="st2" x1="40" y1="22.5" x2="0" y2="22.5"/>
	<line class="st2" x1="40" y1="27.5" x2="0" y2="27.5"/>
	<line class="st2" x1="40" y1="32.5" x2="0" y2="32.5"/>
	<line class="st2" x1="40" y1="37.5" x2="0" y2="37.5"/>
	<circle class="st2" cx="20" cy="20" r="17.5"/>
</g>
<g id="Слой_4" class="st0">
</g>
<g id="Обводка">
	<path class="st4" d="M12.22,15.76l-4.6,4.6c-3.32,3.32-3.32,8.7,0,12.02c3.32,3.32,8.7,3.32,12.02,0l4.6-4.6"/>
	<path class="st4" d="M15.76,12.22l4.6-4.6c3.32-3.32,8.7-3.32,12.02,0c3.32,3.32,3.32,8.7,0,12.02l-4.6,4.6"/>
	<line class="st4" x1="14.7" y1="25.3" x2="25.3" y2="14.7"/>
</g>
<g id="Заливка">
	<g>
		<path d="M23.89,27.42l-4.6,4.6c-3.12,3.12-8.19,3.12-11.31,0c-3.12-3.12-3.12-8.19,0-11.31l4.6-4.6c0.2-0.2,0.2-0.51,0-0.71
			s-0.51-0.2-0.71,0L7.27,20c-3.51,3.51-3.51,9.22,0,12.73c1.75,1.75,4.06,2.63,6.36,2.63c2.3,0,4.61-0.88,6.36-2.63l4.6-4.6
			c0.2-0.2,0.2-0.51,0-0.71S24.08,27.23,23.89,27.42z"/>
		<path d="M32.73,7.27c-3.51-3.51-9.22-3.51-12.73,0l-4.6,4.6c-0.2,0.2-0.2,0.51,0,0.71s0.51,0.2,0.71,0l4.6-4.6
			c3.12-3.12,8.19-3.12,11.31,0s3.12,8.19,0,11.31l-4.6,4.6c-0.2,0.2-0.2,0.51,0,0.71c0.1,0.1,0.23,0.15,0.35,0.15
			s0.26-0.05,0.35-0.15l4.6-4.6C36.24,16.49,36.24,10.78,32.73,7.27z"/>
		<path d="M24.95,14.34L14.34,24.95c-0.2,0.2-0.2,0.51,0,0.71c0.1,0.1,0.23,0.15,0.35,0.15s0.26-0.05,0.35-0.15l10.61-10.61
			c0.2-0.2,0.2-0.51,0-0.71S25.15,14.15,24.95,14.34z"/>
	</g>
</g>
</svg>
