<svg width="14" height="16" viewBox="0 0 14 16" fill="none" xmlns="http://www.w3.org/2000/svg">
<path d="M12.3765 3.11008V0H2.20122C1.12251 0.0539229 0.00796988 0.755055 0.00796988 1.95952C0.00796988 2.06736 -0.00996235 2.33711 0.00796988 2.44494V14.1123C0.0978831 15.2989 1.23038 15.9461 2.327 15.9461L13.1315 16L13.1494 3.99103V3.1101L12.3765 3.11008ZM0.906845 2.24719V1.7798C1.03275 1.20446 1.69789 0.934862 2.34508 0.934862H11.4956V1.15055H5.74282C5.59899 1.15055 5.45516 1.27646 5.45516 1.43822C5.45516 1.58206 5.58106 1.72589 5.74282 1.72589H11.4956V3.12814L2.05744 3.14607C1.53602 3.09215 1.03266 2.76848 0.906877 2.24719L0.906845 2.24719ZM10.4349 6.16628L9.62597 6.99331C9.57204 7.04724 9.50006 7.08323 9.42821 7.08323C9.33829 7.08323 9.26644 7.06529 9.23045 6.99331C9.1226 6.88547 9.1226 6.70564 9.23045 6.59781L10.0575 5.77078C10.1653 5.66293 10.3451 5.66293 10.453 5.77078C10.5608 5.87875 10.5429 6.05845 10.4349 6.16628ZM7.28886 4.71014V5.87861C7.28886 6.04038 7.16295 6.16628 7.00119 6.16628C6.85735 6.16628 6.71352 6.04038 6.71352 5.87861V4.71014C6.71352 4.54837 6.83942 4.42247 7.00119 4.42247C7.16308 4.42247 7.28886 4.54837 7.28886 4.71014ZM4.78999 6.99331C4.73606 7.04724 4.66408 7.08323 4.59223 7.08323C4.52037 7.08323 4.44839 7.06529 4.39447 6.99331L3.58551 6.16628C3.47767 6.05844 3.47767 5.87861 3.58551 5.77078C3.69336 5.66293 3.87318 5.66293 3.98102 5.77078L4.80805 6.59781C4.89796 6.70565 4.89796 6.88548 4.78999 6.99331ZM2.14729 9.16853C2.14729 9.00676 2.2732 8.88086 2.43496 8.88086H3.60343C3.7652 8.88086 3.8911 9.00676 3.8911 9.16853C3.8911 9.33029 3.7652 9.45619 3.60343 9.45619H2.43496C2.29113 9.45619 2.14729 9.33042 2.14729 9.16853ZM4.43047 11.272L3.60344 12.099C3.54952 12.1529 3.47753 12.1889 3.40568 12.1889C3.33382 12.1889 3.26184 12.171 3.20792 12.099C3.10007 11.9912 3.10007 11.8114 3.20792 11.7035L4.03495 10.8765C4.16085 10.7866 4.34055 10.7866 4.4484 10.8765C4.53831 10.9843 4.53831 11.164 4.43047 11.272ZM9.17653 10.5528L9.1586 10.5888C9.1586 10.6067 9.14066 10.6067 9.14066 10.6067L8.38561 11.7034C8.47552 11.8472 8.52944 12.009 8.52944 12.1888V12.8899C8.52944 13.3214 8.20591 13.681 7.79233 13.7528C7.72048 14.1304 7.37888 14.436 6.98338 14.436C6.58787 14.436 6.24627 14.1483 6.17442 13.7528C5.76097 13.681 5.43731 13.3213 5.43731 12.8899V12.2067C5.43731 12.045 5.49124 11.8651 5.56322 11.7394L4.77218 10.5888C4.75424 10.5709 4.75424 10.5349 4.73619 10.5169C4.50244 10.1394 4.35859 9.672 4.35859 9.18658C4.35859 7.74835 5.52707 6.57987 6.98337 6.57987C8.40353 6.57987 9.57217 7.74835 9.59008 9.16867C9.59008 9.67204 9.44624 10.1394 9.19457 10.5349C9.19457 10.5349 9.19457 10.5529 9.17652 10.5529L9.17653 10.5528ZM10.7946 12.081C10.7406 12.1349 10.6687 12.1709 10.5968 12.1709C10.525 12.1709 10.453 12.153 10.399 12.081L9.57202 11.2539C9.46417 11.1461 9.46417 10.9663 9.57202 10.8584C9.67987 10.7506 9.85969 10.7506 9.96753 10.8584L10.7946 11.6855C10.9024 11.7933 10.9024 11.9731 10.7946 12.081ZM11.5675 9.4562H10.3991C10.2373 9.4562 10.1114 9.33029 10.1114 9.16853C10.1114 9.00676 10.2373 8.88086 10.3991 8.88086H11.5675C11.7293 8.88086 11.8731 9.00676 11.8552 9.16853C11.8552 9.33042 11.7114 9.4562 11.5675 9.4562Z" fill="black"/>
</svg>
