<?xml version="1.0" encoding="utf-8"?>
<!-- Generator: Adobe Illustrator 26.0.3, SVG Export Plug-In . SVG Version: 6.00 Build 0)  -->
<svg version="1.1" id="Обводка" xmlns="http://www.w3.org/2000/svg" xmlns:xlink="http://www.w3.org/1999/xlink" x="0px"
	 y="0px" viewBox="0 0 40 40" style="enable-background:new 0 0 40 40;" xml:space="preserve" fill='none' stroke='white'>
<path class="st0" d="M6.5,36.6c-0.4,0.3-0.8,0.6-1.4,0.6c-1.1,0-2-0.9-2-2c0-0.6,0.2-1.1,0.6-1.5l11-11c0.4-0.3,0.8-0.5,1.3-0.5
	c1.1,0,2,0.9,2,2c0,0.5-0.2,1-0.5,1.3L6.5,36.6z"/>
<path class="st0" d="M21.9,4.4c1.4-0.8,3.1-1.2,4.9-1.2C32.4,3.2,37,7.8,37,13.4s-4.6,10.2-10.2,10.2s-10.2-4.6-10.2-10.2
	c0-2.6,1-5,2.6-6.9"/>
<path class="st0" d="M32,18.1c-0.8,1.2-2.1,2.1-3.6,2.4"/>
<line class="st0" x1="19.5" y1="20.6" x2="17.4" y2="22.7"/>
</svg>
