<?xml version="1.0" encoding="utf-8"?>
<!-- Generator: Adobe Illustrator 26.0.3, SVG Export Plug-In . SVG Version: 6.00 Build 0)  -->
<svg version="1.1" id="Обводка" xmlns="http://www.w3.org/2000/svg" xmlns:xlink="http://www.w3.org/1999/xlink" x="0px"
	 y="0px" viewBox="0 0 40 40" style="enable-background:new 0 0 40 40;" xml:space="preserve" fill='none' stroke='white'> 
<polyline class="st0" points="12.7,16.9 12.7,12.7 16.9,12.7 "/>
<polyline class="st0" points="16.9,27.3 12.7,27.3 12.7,23.1 "/>
<polyline class="st0" points="27.3,23.1 27.3,27.3 23.1,27.3 "/>
<polyline class="st0" points="23.1,12.7 27.3,12.7 27.3,16.9 "/>
<line class="st0" x1="29.1" y1="10.9" x2="36" y2="4"/>
<polyline class="st0" points="32.6,4 36,4 36,7.4 "/>
<line class="st0" x1="10.9" y1="10.9" x2="4" y2="4"/>
<polyline class="st0" points="4,7.4 4,4 7.4,4 "/>
<line class="st0" x1="10.9" y1="29.1" x2="4" y2="36"/>
<polyline class="st0" points="7.4,36 4,36 4,32.6 "/>
<line class="st0" x1="29.1" y1="29.1" x2="36" y2="36"/>
<polyline class="st0" points="36,32.6 36,36 32.6,36 "/>
</svg>
