<svg width="24" height="24" viewBox="0 0 24 24" fill="none" xmlns="http://www.w3.org/2000/svg">
<path d="M10.3 18.0057L8 16.4655V10.0057H9C9.36 10.0057 9.69 9.81573 9.86 9.50573L13.04 3.93573C13.24 3.59573 13.67 3.46573 14.03 3.63573C14.17 3.71573 14.29 3.82573 14.36 3.97573L14.58 4.40573C14.81 4.86573 14.87 5.39573 14.74 5.90573L14.22 8.00573H13V10.0057H19.04C19.75 10.0057 20.23 10.7157 19.97 11.3757L17.57 17.3757C17.42 17.7557 17.05 18.0057 16.64 18.0057H10.3ZM4 18.0057V9.00573H6V18.0057H4ZM15.02 8.00573V7.88572C16.09 7.69572 16.42 7.43572 16.68 6.38572C16.92 5.42572 16.81 4.39573 16.36 3.50573L16.15 3.07573C15.89 2.54573 15.45 2.11573 14.92 1.84573C13.62 1.19573 12.03 1.67573 11.31 2.94573L8.42 8.00573H8C8 7.45573 7.55 7.00573 7 7.00573H3C2.44 7.00573 2 7.45573 2 8.00573V19.0057C2 19.5557 2.44 20.0057 3 20.0057H7C7.55 20.0057 8 19.5557 8 19.0057V18.8757L9.44 19.8357C9.61 19.9457 9.8 20.0057 10 20.0057H16.64C17.87 20.0057 18.97 19.2557 19.43 18.1157L21.83 12.1157C22.62 10.1457 21.16 8.00573 19.04 8.00573H15.02Z" fill="#201E33"/>
</svg>
