<?xml version="1.0" encoding="utf-8"?>
<!-- Generator: Adobe Illustrator 26.0.3, SVG Export Plug-In . SVG Version: 6.00 Build 0)  -->
<svg version="1.1" xmlns="http://www.w3.org/2000/svg" xmlns:xlink="http://www.w3.org/1999/xlink" x="0px" y="0px"
	 viewBox="0 0 40 40" style="enable-background:new 0 0 40 40;" xml:space="preserve">
<style type="text/css">
	.st0{display:none;}
	.st1{display:inline;opacity:0.2;fill:#FBBA6B;}
	.st2{display:inline;fill:none;stroke:#BBBDBF;stroke-width:0.1;stroke-miterlimit:10;}
	.st3{fill:none;stroke:#000000;stroke-miterlimit:10;}
	.st4{fill:none;stroke:#000000;stroke-linecap:round;stroke-linejoin:round;stroke-miterlimit:10;}
	.st5{fill:none;stroke:#231F20;stroke-linecap:round;stroke-linejoin:round;stroke-miterlimit:10;}
	.st6{fill:#231F20;}
</style>
<g id="Слой_2" class="st0">
	<rect x="2.5" y="0" class="st1" width="35" height="40"/>
	<rect x="2.5" y="0" transform="matrix(-1.836970e-16 1 -1 -1.836970e-16 40 9.553247e-12)" class="st1" width="35" height="40"/>
	<line class="st2" x1="5" y1="0" x2="5" y2="40"/>
	<line class="st2" x1="10" y1="0" x2="10" y2="40"/>
	<line class="st2" x1="15" y1="0" x2="15" y2="40"/>
	<line class="st2" x1="20" y1="0" x2="20" y2="40"/>
	<line class="st2" x1="25" y1="0" x2="25" y2="40"/>
	<line class="st2" x1="30" y1="0" x2="30" y2="40"/>
	<line class="st2" x1="35" y1="0" x2="35" y2="40"/>
	<line class="st2" x1="2.5" y1="0" x2="2.5" y2="40"/>
	<line class="st2" x1="7.5" y1="0" x2="7.5" y2="40"/>
	<line class="st2" x1="12.5" y1="0" x2="12.5" y2="40"/>
	<line class="st2" x1="17.5" y1="0" x2="17.5" y2="40"/>
	<line class="st2" x1="22.5" y1="0" x2="22.5" y2="40"/>
	<line class="st2" x1="27.5" y1="0" x2="27.5" y2="40"/>
	<line class="st2" x1="32.5" y1="0" x2="32.5" y2="40"/>
	<line class="st2" x1="37.5" y1="0" x2="37.5" y2="40"/>
	<line class="st2" x1="40" y1="5" x2="0" y2="5"/>
	<line class="st2" x1="40" y1="10" x2="0" y2="10"/>
	<line class="st2" x1="40" y1="15" x2="0" y2="15"/>
	<line class="st2" x1="40" y1="20" x2="0" y2="20"/>
	<line class="st2" x1="40" y1="25" x2="0" y2="25"/>
	<line class="st2" x1="40" y1="30" x2="0" y2="30"/>
	<line class="st2" x1="40" y1="35" x2="0" y2="35"/>
	<line class="st2" x1="40" y1="2.5" x2="0" y2="2.5"/>
	<line class="st2" x1="40" y1="7.5" x2="0" y2="7.5"/>
	<line class="st2" x1="40" y1="12.5" x2="0" y2="12.5"/>
	<line class="st2" x1="40" y1="17.5" x2="0" y2="17.5"/>
	<line class="st2" x1="40" y1="22.5" x2="0" y2="22.5"/>
	<line class="st2" x1="40" y1="27.5" x2="0" y2="27.5"/>
	<line class="st2" x1="40" y1="32.5" x2="0" y2="32.5"/>
	<line class="st2" x1="40" y1="37.5" x2="0" y2="37.5"/>
	<circle class="st2" cx="20" cy="20" r="17.5"/>
</g>
<g id="Слой_4" class="st0">
</g>
<g id="Обводка">
	<circle class="st3" cx="20" cy="20" r="17.5"/>
	<path class="st4" d="M32.85,13.28c1.05,2.01,1.65,4.3,1.65,6.72c0,8.01-6.49,14.5-14.5,14.5S5.5,28.01,5.5,20S11.99,5.5,20,5.5
		c2.74,0,5.31,0.76,7.5,2.09"/>
	<line class="st4" x1="20" y1="13" x2="20" y2="27"/>
	<line class="st4" x1="27" y1="20" x2="13" y2="20"/>
</g>
<g id="Заливка">
	<g>
		<path d="M20,2C10.08,2,2,10.07,2,20c0,9.92,8.08,18,18,18s18-8.08,18-18C38,10.07,29.92,2,20,2z M20,37c-9.37,0-17-7.63-17-17
			S10.63,3,20,3s17,7.63,17,17S29.37,37,20,37z"/>
		<path d="M33.29,13.04c-0.13-0.25-0.43-0.34-0.67-0.21c-0.24,0.13-0.34,0.43-0.21,0.68C33.45,15.49,34,17.74,34,20
			c0,7.72-6.28,14-14,14S6,27.72,6,20S12.28,6,20,6c2.56,0,5.06,0.7,7.24,2.02c0.24,0.14,0.54,0.07,0.69-0.17
			C28.07,7.61,28,7.3,27.76,7.16C25.42,5.75,22.74,5,20,5C11.73,5,5,11.73,5,20c0,8.27,6.73,15,15,15s15-6.73,15-15
			C35,17.58,34.41,15.17,33.29,13.04z"/>
		<path d="M20,27.5c0.28,0,0.5-0.22,0.5-0.5v-6.5H27c0.28,0,0.5-0.22,0.5-0.5s-0.22-0.5-0.5-0.5h-6.5V13c0-0.28-0.22-0.5-0.5-0.5
			s-0.5,0.22-0.5,0.5v6.5H13c-0.28,0-0.5,0.22-0.5,0.5s0.22,0.5,0.5,0.5h6.5V27C19.5,27.28,19.72,27.5,20,27.5z"/>
	</g>
</g>
</svg>
