<?xml version="1.0" encoding="utf-8"?>
<!-- Generator: Adobe Illustrator 26.0.3, SVG Export Plug-In . SVG Version: 6.00 Build 0)  -->
<svg version="1.1" xmlns="http://www.w3.org/2000/svg" xmlns:xlink="http://www.w3.org/1999/xlink" x="0px" y="0px"
	 viewBox="0 0 40 40" style="enable-background:new 0 0 40 40;" xml:space="preserve">
<style type="text/css">
	.st0{display:none;}
	.st1{display:inline;opacity:0.2;fill:#FBBA6B;}
	.st2{display:inline;fill:none;stroke:#BBBDBF;stroke-width:0.1;stroke-miterlimit:10;}
	.st3{fill:none;stroke:#000000;stroke-miterlimit:10;}
	.st4{fill:none;stroke:#000000;stroke-linecap:round;stroke-linejoin:round;stroke-miterlimit:10;}
	.st5{fill:none;stroke:#231F20;stroke-linecap:round;stroke-linejoin:round;stroke-miterlimit:10;}
	.st6{fill:#231F20;}
</style>
<g id="Слой_2" class="st0">
	<rect x="2.5" y="0" class="st1" width="35" height="40"/>
	<rect x="2.5" y="0" transform="matrix(-1.836970e-16 1 -1 -1.836970e-16 40 9.553247e-12)" class="st1" width="35" height="40"/>
	<line class="st2" x1="5" y1="0" x2="5" y2="40"/>
	<line class="st2" x1="10" y1="0" x2="10" y2="40"/>
	<line class="st2" x1="15" y1="0" x2="15" y2="40"/>
	<line class="st2" x1="20" y1="0" x2="20" y2="40"/>
	<line class="st2" x1="25" y1="0" x2="25" y2="40"/>
	<line class="st2" x1="30" y1="0" x2="30" y2="40"/>
	<line class="st2" x1="35" y1="0" x2="35" y2="40"/>
	<line class="st2" x1="2.5" y1="0" x2="2.5" y2="40"/>
	<line class="st2" x1="7.5" y1="0" x2="7.5" y2="40"/>
	<line class="st2" x1="12.5" y1="0" x2="12.5" y2="40"/>
	<line class="st2" x1="17.5" y1="0" x2="17.5" y2="40"/>
	<line class="st2" x1="22.5" y1="0" x2="22.5" y2="40"/>
	<line class="st2" x1="27.5" y1="0" x2="27.5" y2="40"/>
	<line class="st2" x1="32.5" y1="0" x2="32.5" y2="40"/>
	<line class="st2" x1="37.5" y1="0" x2="37.5" y2="40"/>
	<line class="st2" x1="40" y1="5" x2="0" y2="5"/>
	<line class="st2" x1="40" y1="10" x2="0" y2="10"/>
	<line class="st2" x1="40" y1="15" x2="0" y2="15"/>
	<line class="st2" x1="40" y1="20" x2="0" y2="20"/>
	<line class="st2" x1="40" y1="25" x2="0" y2="25"/>
	<line class="st2" x1="40" y1="30" x2="0" y2="30"/>
	<line class="st2" x1="40" y1="35" x2="0" y2="35"/>
	<line class="st2" x1="40" y1="2.5" x2="0" y2="2.5"/>
	<line class="st2" x1="40" y1="7.5" x2="0" y2="7.5"/>
	<line class="st2" x1="40" y1="12.5" x2="0" y2="12.5"/>
	<line class="st2" x1="40" y1="17.5" x2="0" y2="17.5"/>
	<line class="st2" x1="40" y1="22.5" x2="0" y2="22.5"/>
	<line class="st2" x1="40" y1="27.5" x2="0" y2="27.5"/>
	<line class="st2" x1="40" y1="32.5" x2="0" y2="32.5"/>
	<line class="st2" x1="40" y1="37.5" x2="0" y2="37.5"/>
	<circle class="st2" cx="20" cy="20" r="17.5"/>
</g>
<g id="Слой_4" class="st0">
</g>
<g id="Обводка">
	<polyline class="st4" points="2.5,12.5 2.5,2.5 12.5,2.5 	"/>
	<polyline class="st4" points="12.5,37.5 2.5,37.5 2.5,27.5 	"/>
	<polyline class="st4" points="37.5,27.5 37.5,37.5 27.5,37.5 	"/>
	<polyline class="st4" points="27.5,2.5 37.5,2.5 37.5,12.5 	"/>
</g>
<g id="Заливка">
	<g>
		<path d="M2.5,13C2.22,13,2,12.78,2,12.5v-10C2,2.22,2.22,2,2.5,2h10C12.78,2,13,2.22,13,2.5S12.78,3,12.5,3H3v9.5
			C3,12.78,2.78,13,2.5,13z"/>
	</g>
	<g>
		<path d="M12.5,38h-10C2.22,38,2,37.78,2,37.5v-10C2,27.22,2.22,27,2.5,27S3,27.22,3,27.5V37h9.5c0.28,0,0.5,0.22,0.5,0.5
			S12.78,38,12.5,38z"/>
	</g>
	<g>
		<path d="M37.5,38h-10c-0.28,0-0.5-0.22-0.5-0.5s0.22-0.5,0.5-0.5H37v-9.5c0-0.28,0.22-0.5,0.5-0.5s0.5,0.22,0.5,0.5v10
			C38,37.78,37.78,38,37.5,38z"/>
	</g>
	<g>
		<path d="M37.5,13c-0.28,0-0.5-0.22-0.5-0.5V3h-9.5C27.22,3,27,2.78,27,2.5S27.22,2,27.5,2h10C37.78,2,38,2.22,38,2.5v10
			C38,12.78,37.78,13,37.5,13z"/>
	</g>
</g>
</svg>
